<mxfile host="app.diagrams.net" agent="Mozilla/5.0 (Windows NT 10.0; Win64; x64) AppleWebKit/537.36 (KHTML, like Gecko) Chrome/138.0.0.0 Safari/537.36" version="28.0.6">
  <diagram name="Page-1" id="HhcMIBHXNk6MgxZ09Wl_">
    <mxGraphModel dx="1426" dy="871" grid="1" gridSize="10" guides="1" tooltips="1" connect="1" arrows="1" fold="1" page="1" pageScale="1" pageWidth="827" pageHeight="1169" math="0" shadow="0">
      <root>
        <mxCell id="0" />
        <mxCell id="1" parent="0" />
        <mxCell id="f61mD6SyoXB9CqTmOYC6-40" value="VPC" style="points=[[0,0],[0.25,0],[0.5,0],[0.75,0],[1,0],[1,0.25],[1,0.5],[1,0.75],[1,1],[0.75,1],[0.5,1],[0.25,1],[0,1],[0,0.75],[0,0.5],[0,0.25]];outlineConnect=0;gradientColor=none;html=1;whiteSpace=wrap;fontSize=12;fontStyle=0;container=1;pointerEvents=0;collapsible=0;recursiveResize=0;shape=mxgraph.aws4.group;grIcon=mxgraph.aws4.group_vpc2;strokeColor=#8C4FFF;fillColor=none;verticalAlign=top;align=left;spacingLeft=30;fontColor=#AAB7B8;dashed=0;" parent="1" vertex="1">
          <mxGeometry x="380" y="19" width="420" height="441" as="geometry" />
        </mxCell>
        <mxCell id="f61mD6SyoXB9CqTmOYC6-39" value="Private subnet" style="points=[[0,0],[0.25,0],[0.5,0],[0.75,0],[1,0],[1,0.25],[1,0.5],[1,0.75],[1,1],[0.75,1],[0.5,1],[0.25,1],[0,1],[0,0.75],[0,0.5],[0,0.25]];outlineConnect=0;gradientColor=none;html=1;whiteSpace=wrap;fontSize=12;fontStyle=0;container=1;pointerEvents=0;collapsible=0;recursiveResize=0;shape=mxgraph.aws4.group;grIcon=mxgraph.aws4.group_security_group;grStroke=0;strokeColor=#00A4A6;fillColor=#E6F6F7;verticalAlign=top;align=left;spacingLeft=30;fontColor=#147EBA;dashed=0;" parent="f61mD6SyoXB9CqTmOYC6-40" vertex="1">
          <mxGeometry x="140" y="301" width="240" height="130" as="geometry" />
        </mxCell>
        <mxCell id="QuUJemgKmAIwudRQDBxj-5" value="" style="image;aspect=fixed;html=1;points=[];align=center;fontSize=12;image=img/lib/azure2/databases/SQL_Database.svg;" vertex="1" parent="f61mD6SyoXB9CqTmOYC6-39">
          <mxGeometry x="145" y="40" width="48" height="64" as="geometry" />
        </mxCell>
        <mxCell id="QuUJemgKmAIwudRQDBxj-6" value="" style="image;aspect=fixed;html=1;points=[];align=center;fontSize=12;image=img/lib/azure2/security/Key_Vaults.svg;" vertex="1" parent="f61mD6SyoXB9CqTmOYC6-39">
          <mxGeometry x="30" y="40" width="68" height="68" as="geometry" />
        </mxCell>
        <mxCell id="QuUJemgKmAIwudRQDBxj-8" value="" style="image;aspect=fixed;html=1;points=[];align=center;fontSize=12;image=img/lib/azure2/networking/Load_Balancers.svg;" vertex="1" parent="f61mD6SyoXB9CqTmOYC6-40">
          <mxGeometry x="20" y="101" width="72" height="72" as="geometry" />
        </mxCell>
        <mxCell id="f61mD6SyoXB9CqTmOYC6-37" value="Public subnet" style="points=[[0,0],[0.25,0],[0.5,0],[0.75,0],[1,0],[1,0.25],[1,0.5],[1,0.75],[1,1],[0.75,1],[0.5,1],[0.25,1],[0,1],[0,0.75],[0,0.5],[0,0.25]];outlineConnect=0;gradientColor=none;html=1;whiteSpace=wrap;fontSize=12;fontStyle=0;container=1;pointerEvents=0;collapsible=0;recursiveResize=0;shape=mxgraph.aws4.group;grIcon=mxgraph.aws4.group_security_group;grStroke=0;strokeColor=#7AA116;fillColor=#F2F6E8;verticalAlign=top;align=left;spacingLeft=30;fontColor=#248814;dashed=0;" parent="1" vertex="1">
          <mxGeometry x="520" y="40" width="240" height="240" as="geometry" />
        </mxCell>
        <mxCell id="QuUJemgKmAIwudRQDBxj-4" value="" style="image;aspect=fixed;html=1;points=[];align=center;fontSize=12;image=img/lib/azure2/containers/Container_Instances.svg;" vertex="1" parent="f61mD6SyoXB9CqTmOYC6-37">
          <mxGeometry x="20" y="109" width="46.38" height="50" as="geometry" />
        </mxCell>
        <mxCell id="QuUJemgKmAIwudRQDBxj-12" value="" style="image;aspect=fixed;html=1;points=[];align=center;fontSize=12;image=img/lib/azure2/containers/Container_Instances.svg;" vertex="1" parent="f61mD6SyoXB9CqTmOYC6-37">
          <mxGeometry x="20" y="170" width="46.38" height="50" as="geometry" />
        </mxCell>
        <mxCell id="QuUJemgKmAIwudRQDBxj-14" style="edgeStyle=orthogonalEdgeStyle;rounded=0;orthogonalLoop=1;jettySize=auto;html=1;" edge="1" parent="f61mD6SyoXB9CqTmOYC6-37" source="QuUJemgKmAIwudRQDBxj-1" target="QuUJemgKmAIwudRQDBxj-4">
          <mxGeometry relative="1" as="geometry" />
        </mxCell>
        <mxCell id="QuUJemgKmAIwudRQDBxj-1" value="" style="image;aspect=fixed;html=1;points=[];align=center;fontSize=12;image=img/lib/azure2/containers/Kubernetes_Services.svg;" vertex="1" parent="f61mD6SyoXB9CqTmOYC6-37">
          <mxGeometry x="110" y="120" width="108" height="95.29" as="geometry" />
        </mxCell>
        <mxCell id="QuUJemgKmAIwudRQDBxj-2" value="" style="image;aspect=fixed;html=1;points=[];align=center;fontSize=12;image=img/lib/azure2/containers/Container_Registries.svg;" vertex="1" parent="f61mD6SyoXB9CqTmOYC6-37">
          <mxGeometry x="140" y="21.76" width="68" height="61" as="geometry" />
        </mxCell>
        <mxCell id="QuUJemgKmAIwudRQDBxj-13" style="edgeStyle=orthogonalEdgeStyle;rounded=0;orthogonalLoop=1;jettySize=auto;html=1;entryX=0.593;entryY=0.031;entryDx=0;entryDy=0;entryPerimeter=0;" edge="1" parent="f61mD6SyoXB9CqTmOYC6-37" source="QuUJemgKmAIwudRQDBxj-2" target="QuUJemgKmAIwudRQDBxj-1">
          <mxGeometry relative="1" as="geometry" />
        </mxCell>
        <mxCell id="QuUJemgKmAIwudRQDBxj-15" style="edgeStyle=orthogonalEdgeStyle;rounded=0;orthogonalLoop=1;jettySize=auto;html=1;entryX=0.927;entryY=0.62;entryDx=0;entryDy=0;entryPerimeter=0;" edge="1" parent="f61mD6SyoXB9CqTmOYC6-37" source="QuUJemgKmAIwudRQDBxj-1" target="QuUJemgKmAIwudRQDBxj-12">
          <mxGeometry relative="1" as="geometry" />
        </mxCell>
        <mxCell id="f61mD6SyoXB9CqTmOYC6-45" style="edgeStyle=orthogonalEdgeStyle;rounded=0;orthogonalLoop=1;jettySize=auto;html=1;exitX=1;exitY=0.5;exitDx=0;exitDy=0;exitPerimeter=0;" parent="1" edge="1">
          <mxGeometry relative="1" as="geometry">
            <mxPoint x="520" y="200" as="targetPoint" />
            <Array as="points">
              <mxPoint x="520" y="199" />
            </Array>
            <mxPoint x="358" y="199" as="sourcePoint" />
          </mxGeometry>
        </mxCell>
        <mxCell id="f61mD6SyoXB9CqTmOYC6-41" style="edgeStyle=orthogonalEdgeStyle;rounded=0;orthogonalLoop=1;jettySize=auto;html=1;exitX=0.5;exitY=0;exitDx=0;exitDy=0;entryX=0.5;entryY=1;entryDx=0;entryDy=0;" parent="1" source="f61mD6SyoXB9CqTmOYC6-39" target="f61mD6SyoXB9CqTmOYC6-37" edge="1">
          <mxGeometry relative="1" as="geometry" />
        </mxCell>
        <mxCell id="f61mD6SyoXB9CqTmOYC6-46" style="edgeStyle=orthogonalEdgeStyle;rounded=0;orthogonalLoop=1;jettySize=auto;html=1;entryX=0;entryY=0.5;entryDx=0;entryDy=0;entryPerimeter=0;" parent="1" edge="1">
          <mxGeometry relative="1" as="geometry">
            <mxPoint x="189.9038018317733" y="199" as="sourcePoint" />
            <mxPoint x="280" y="199" as="targetPoint" />
          </mxGeometry>
        </mxCell>
        <mxCell id="QuUJemgKmAIwudRQDBxj-7" value="" style="image;aspect=fixed;html=1;points=[];align=center;fontSize=12;image=img/lib/azure2/networking/Web_Application_Firewall_Policies_WAF.svg;" vertex="1" parent="1">
          <mxGeometry x="287" y="249" width="68" height="68" as="geometry" />
        </mxCell>
        <mxCell id="QuUJemgKmAIwudRQDBxj-9" value="" style="image;aspect=fixed;html=1;points=[];align=center;fontSize=12;image=img/lib/azure2/networking/CDN_Profiles.svg;" vertex="1" parent="1">
          <mxGeometry x="287" y="180" width="68" height="40" as="geometry" />
        </mxCell>
        <mxCell id="QuUJemgKmAIwudRQDBxj-10" value="" style="image;aspect=fixed;html=1;points=[];align=center;fontSize=12;image=img/lib/azure2/identity/Users.svg;" vertex="1" parent="1">
          <mxGeometry x="120" y="160" width="64" height="70" as="geometry" />
        </mxCell>
        <mxCell id="QuUJemgKmAIwudRQDBxj-11" style="edgeStyle=orthogonalEdgeStyle;rounded=0;orthogonalLoop=1;jettySize=auto;html=1;entryX=0.5;entryY=0.044;entryDx=0;entryDy=0;entryPerimeter=0;" edge="1" parent="1" source="QuUJemgKmAIwudRQDBxj-9" target="QuUJemgKmAIwudRQDBxj-7">
          <mxGeometry relative="1" as="geometry" />
        </mxCell>
      </root>
    </mxGraphModel>
  </diagram>
</mxfile>
